<?xml version="1.0" encoding="UTF-8" standalone="no"?>
<svg
   xmlns:dc="http://purl.org/dc/elements/1.1/"
   xmlns:cc="http://creativecommons.org/ns#"
   xmlns:rdf="http://www.w3.org/1999/02/22-rdf-syntax-ns#"
   xmlns:svg="http://www.w3.org/2000/svg"
   xmlns="http://www.w3.org/2000/svg"
   xmlns:xlink="http://www.w3.org/1999/xlink"
   id="svg5736"
   version="1.1"
   viewBox="0 0 4.2333331 4.2333331"
   height="4.2333331mm"
   width="4.2333331mm">
  <defs
     id="defs5730">
    <linearGradient
       gradientTransform="matrix(1.3967608,0,0,1.3967608,-39.937,-378.3693)"
       gradientUnits="userSpaceOnUse"
       y2="286.25882"
       x2="7.5095234"
       y1="284.09042"
       x1="7.5095234"
       id="linearGradient5706"
       xlink:href="#linearGradient4522" />
    <linearGradient
       id="linearGradient4522">
      <stop
         style="stop-color:#8cc33a;stop-opacity:1"
         offset="0"
         id="stop4518" />
      <stop
         style="stop-color:#3f7c04;stop-opacity:1"
         offset="1"
         id="stop4520" />
    </linearGradient>
  </defs>
  <metadata
     id="metadata5733">
    <rdf:RDF>
      <cc:Work
         rdf:about="">
        <dc:format>image/svg+xml</dc:format>
        <dc:type
           rdf:resource="http://purl.org/dc/dcmitype/StillImage" />
        <dc:title></dc:title>
      </cc:Work>
    </rdf:RDF>
  </metadata>
  <g
     transform="translate(30.997555,-18.35946)"
     id="layer1">
    <path
       id="path5698"
       d="m -28.881249,18.35946 a 2.116526,2.1165255 0 0 0 -2.116306,2.117027 2.116526,2.1165255 0 0 0 2.116306,2.116306 2.116526,2.1165255 0 0 0 2.117027,-2.116306 2.116526,2.1165255 0 0 0 -2.117027,-2.117027 z m -0.508867,0.908741 a 0.1850893,0.1850893 0 0 1 0.116937,0.04403 l 1.440705,1.164256 -1.440705,1.164979 a 0.18533646,0.18533646 0 1 1 -0.231696,-0.288719 l 1.082694,-0.87626 -1.082694,-0.878426 a 0.1850893,0.1850893 0 0 1 0.114758,-0.32986 z"
       style="opacity:1;fill:url(#linearGradient5706);fill-opacity:1;stroke:none;stroke-width:0.26458335;stroke-miterlimit:4;stroke-dasharray:none;stroke-dashoffset:0;stroke-opacity:1" />
  </g>
</svg>
