<?xml version="1.0" encoding="UTF-8" standalone="no"?>
<svg
   xmlns:dc="http://purl.org/dc/elements/1.1/"
   xmlns:cc="http://creativecommons.org/ns#"
   xmlns:rdf="http://www.w3.org/1999/02/22-rdf-syntax-ns#"
   xmlns:svg="http://www.w3.org/2000/svg"
   xmlns="http://www.w3.org/2000/svg"
   xmlns:xlink="http://www.w3.org/1999/xlink"
   id="svg5185"
   version="1.1"
   viewBox="0 0 4.2333331 4.2333302"
   height="4.2333302mm"
   width="4.2333331mm">
  <defs
     id="defs5179">
    <linearGradient
       y2="286.25882"
       x2="7.5095234"
       y1="284.09042"
       x1="7.5095234"
       gradientTransform="matrix(-1.3967603,0,0,1.3967603,89.520523,-279.33939)"
       gradientUnits="userSpaceOnUse"
       id="linearGradient4546"
       xlink:href="#linearGradient4522" />
    <linearGradient
       id="linearGradient4522">
      <stop
         style="stop-color:#8cc33a;stop-opacity:1"
         offset="0"
         id="stop4518" />
      <stop
         style="stop-color:#3f7c04;stop-opacity:1"
         offset="1"
         id="stop4520" />
    </linearGradient>
  </defs>
  <metadata
     id="metadata5182">
    <rdf:RDF>
      <cc:Work
         rdf:about="">
        <dc:format>image/svg+xml</dc:format>
        <dc:type
           rdf:resource="http://purl.org/dc/dcmitype/StillImage" />
        <dc:title></dc:title>
      </cc:Work>
    </rdf:RDF>
  </metadata>
  <g
     transform="translate(-76.347685,-117.38922)"
     id="layer1">
    <path
       id="path4544"
       d="m 78.464711,117.38922 a 2.1165253,2.1165249 0 0 0 -2.117026,2.11703 2.1165253,2.1165249 0 0 0 2.117026,2.1163 2.1165253,2.1165249 0 0 0 2.116307,-2.1163 2.1165253,2.1165249 0 0 0 -2.116307,-2.11703 z m -0.367394,0.88059 h 0.111881 v 0.25047 h -0.08372 c -0.04264,0 -0.08156,0.006 -0.116211,0.0166 -0.03376,0.01 -0.06319,0.026 -0.08805,0.049 -0.02488,0.023 -0.04369,0.0535 -0.05702,0.0916 -0.01327,0.0373 -0.02021,0.0841 -0.02021,0.14003 v 0.23313 c 0,0.0666 -0.0057,0.12333 -0.01732,0.17035 -0.01062,0.0471 -0.02745,0.0872 -0.05052,0.11914 -0.0231,0.0312 -0.05253,0.0552 -0.08807,0.0729 -0.03553,0.0169 -0.0769,0.0291 -0.12487,0.036 0.09505,0.0112 0.165294,0.0479 0.211486,0.11188 0.04619,0.0631 0.06929,0.16014 0.06929,0.29162 v 0.33852 c 0,0.0577 0.0068,0.10615 0.02021,0.14435 0.01327,0.0381 0.03215,0.0686 0.05702,0.0916 0.02488,0.023 0.05431,0.0392 0.08807,0.049 0.03465,0.01 0.07357,0.0152 0.116211,0.0152 h 0.08372 v 0.25047 h -0.111881 c -0.183881,0 -0.321538,-0.0447 -0.412146,-0.13353 -0.09061,-0.088 -0.135696,-0.22749 -0.135696,-0.41937 v -0.33852 c 0,-0.0915 -0.02049,-0.16023 -0.06136,-0.20644 -0.04086,-0.0462 -0.108501,-0.0693 -0.203547,-0.0693 h -0.08445 v -0.25192 h 0.08445 c 0.04796,0 0.08822,-0.006 0.121979,-0.0152 0.03376,-0.0112 0.0617,-0.0263 0.08301,-0.0476 0.02132,-0.0214 0.03658,-0.0488 0.04548,-0.0816 0.0098,-0.0338 0.01443,-0.0736 0.01443,-0.11984 v -0.23459 c 0,-0.0915 0.01062,-0.17179 0.03104,-0.24108 0.02132,-0.0693 0.05373,-0.12711 0.09816,-0.17323 0.04442,-0.0462 0.101223,-0.0809 0.169621,-0.10392 0.06929,-0.024 0.152195,-0.036 0.24902,-0.036 z m 0.692925,0 h 0.11188 c 0.184768,0 0.322261,0.0447 0.412867,0.13353 0.09061,0.088 0.135695,0.22804 0.135695,0.4208 v 0.22376 c 0,0.0915 0.01993,0.16097 0.05991,0.20716 0.04086,0.0452 0.109213,0.0679 0.20427,0.0679 h 0.08517 v 0.2519 h -0.08517 c -0.04797,0 -0.08895,0.006 -0.122706,0.0159 -0.03376,0.01 -0.0617,0.0249 -0.08301,0.0462 -0.02044,0.0214 -0.03498,0.0493 -0.04475,0.083 -0.0088,0.0328 -0.01369,0.0722 -0.01369,0.1183 v 0.3508 c 0,0.0915 -0.01047,0.17124 -0.03176,0.23964 -0.02043,0.0693 -0.05302,0.12697 -0.09744,0.17323 -0.04442,0.0462 -0.101056,0.0809 -0.170343,0.10392 -0.06929,0.024 -0.152195,0.036 -0.24902,0.036 h -0.111881 v -0.25045 h 0.08517 c 0.04264,0 0.08101,-0.006 0.114771,-0.0152 0.03465,-0.01 0.0639,-0.0265 0.08878,-0.0506 0.02488,-0.023 0.04442,-0.0535 0.05774,-0.0916 0.01327,-0.0373 0.01948,-0.0841 0.01948,-0.14003 v -0.34647 c 0,-0.0666 0.0059,-0.12333 0.01659,-0.17034 0.01159,-0.0479 0.02833,-0.088 0.05052,-0.11915 0.02309,-0.032 0.05181,-0.056 0.08734,-0.0729 0.03553,-0.0169 0.07763,-0.029 0.125597,-0.036 -0.09505,-0.0112 -0.166014,-0.0487 -0.212207,-0.11188 -0.04531,-0.064 -0.06786,-0.16157 -0.06786,-0.29305 v -0.22231 c 0,-0.0577 -0.0061,-0.10615 -0.01948,-0.14435 -0.01327,-0.0391 -0.03287,-0.07 -0.05774,-0.0932 -0.02488,-0.023 -0.05412,-0.0392 -0.08878,-0.049 -0.03376,-0.01 -0.07214,-0.0152 -0.114772,-0.0152 h -0.08517 z"
       style="opacity:1;fill:url(#linearGradient4546);fill-opacity:1;stroke:none;stroke-width:0.26458332;stroke-miterlimit:4;stroke-dasharray:none;stroke-dashoffset:0;stroke-opacity:1" />
  </g>
</svg>
