<?xml version="1.0" encoding="UTF-8" standalone="no"?>
<svg
   xmlns:dc="http://purl.org/dc/elements/1.1/"
   xmlns:cc="http://creativecommons.org/ns#"
   xmlns:rdf="http://www.w3.org/1999/02/22-rdf-syntax-ns#"
   xmlns:svg="http://www.w3.org/2000/svg"
   xmlns="http://www.w3.org/2000/svg"
   xmlns:xlink="http://www.w3.org/1999/xlink"
   id="svg5146"
   version="1.1"
   viewBox="0 0 4.2333331 4.2333341"
   height="4.2333341mm"
   width="4.2333331mm">
  <defs
     id="defs5140">
    <linearGradient
       y2="286.25882"
       x2="7.5095234"
       y1="284.09042"
       x1="7.5095234"
       gradientTransform="matrix(-1.3967603,0,0,1.3967603,-37.479426,-332.25607)"
       gradientUnits="userSpaceOnUse"
       id="linearGradient5117"
       xlink:href="#linearGradient4522" />
    <linearGradient
       id="linearGradient4522">
      <stop
         id="stop4518"
         offset="0"
         style="stop-color:#8cc33a;stop-opacity:1" />
      <stop
         id="stop4520"
         offset="1"
         style="stop-color:#3f7c04;stop-opacity:1" />
    </linearGradient>
  </defs>
  <metadata
     id="metadata5143">
    <rdf:RDF>
      <cc:Work
         rdf:about="">
        <dc:format>image/svg+xml</dc:format>
        <dc:type
           rdf:resource="http://purl.org/dc/dcmitype/StillImage" />
        <dc:title></dc:title>
      </cc:Work>
    </rdf:RDF>
  </metadata>
  <g
     transform="translate(50.652316,-64.472555)"
     id="layer1">
    <path
       id="path5121"
       d="m -48.535288,64.472555 a 2.1165253,2.1165249 0 0 0 -2.117028,2.117027 2.1165253,2.1165249 0 0 0 2.117028,2.116307 2.1165253,2.1165249 0 0 0 2.116305,-2.116307 2.1165253,2.1165249 0 0 0 -2.116305,-2.117027 z m -7.39e-4,0.478552 1.164257,1.440703 a 0.18508923,0.18508923 0 0 1 0.04403,0.116937 0.18508923,0.18508923 0 0 1 -0.329862,0.114772 l -0.878425,-1.082695 -0.876261,1.082693 a 0.18533639,0.18533639 0 1 1 -0.288719,-0.231696 z m 0,1.135384 1.164257,1.440705 a 0.18508923,0.18508923 0 0 1 0.04403,0.116937 0.18508923,0.18508923 0 0 1 -0.329862,0.114772 l -0.878425,-1.082696 -0.876261,1.082694 a 0.18533639,0.18533639 0 1 1 -0.288719,-0.231696 z"
       style="opacity:1;fill:url(#linearGradient5117);fill-opacity:1;stroke:none;stroke-width:0.26458332;stroke-miterlimit:4;stroke-dasharray:none;stroke-dashoffset:0;stroke-opacity:1" />
  </g>
</svg>
