<?xml version="1.0" encoding="UTF-8" standalone="no"?>
<svg
   xmlns:dc="http://purl.org/dc/elements/1.1/"
   xmlns:cc="http://creativecommons.org/ns#"
   xmlns:rdf="http://www.w3.org/1999/02/22-rdf-syntax-ns#"
   xmlns:svg="http://www.w3.org/2000/svg"
   xmlns="http://www.w3.org/2000/svg"
   xmlns:xlink="http://www.w3.org/1999/xlink"
   id="svg4552"
   version="1.1"
   viewBox="0 0 4.2333341 4.2333302"
   height="4.2333302mm"
   width="4.2333341mm">
  <defs
     id="defs4546">
    <linearGradient
       y2="286.25882"
       x2="7.5095234"
       y1="284.09042"
       x1="7.5095234"
       gradientTransform="matrix(-1.3967608,0,0,1.3967608,-57.890076,-243.05381)"
       gradientUnits="userSpaceOnUse"
       id="linearGradient4510"
       xlink:href="#linearGradient4522" />
    <linearGradient
       id="linearGradient4522">
      <stop
         id="stop4518"
         offset="0"
         style="stop-color:#8cc33a;stop-opacity:1" />
      <stop
         id="stop4520"
         offset="1"
         style="stop-color:#3f7c04;stop-opacity:1" />
    </linearGradient>
  </defs>
  <metadata
     id="metadata4549">
    <rdf:RDF>
      <cc:Work
         rdf:about="">
        <dc:format>image/svg+xml</dc:format>
        <dc:type
           rdf:resource="http://purl.org/dc/dcmitype/StillImage" />
        <dc:title></dc:title>
      </cc:Work>
    </rdf:RDF>
  </metadata>
  <g
     transform="translate(71.063034,-153.67495)"
     id="layer1">
    <path
       id="path4528"
       d="m -68.946007,153.67495 a 2.116526,2.1165256 0 0 0 -2.117027,2.11703 2.116526,2.1165256 0 0 0 2.117027,2.1163 2.116526,2.1165256 0 0 0 2.116307,-2.1163 2.116526,2.1165256 0 0 0 -2.116307,-2.11703 z m -7.38e-4,1.06825 1.164257,1.44071 a 0.1850893,0.1850893 0 0 1 0.04403,0.11691 0.1850893,0.1850893 0 0 1 -0.329861,0.11481 l -0.878427,-1.0827 -0.87626,1.0827 a 0.18533646,0.18533646 0 1 1 -0.288718,-0.2317 z"
       style="opacity:1;fill:url(#linearGradient4510);fill-opacity:1;stroke:none;stroke-width:0.26458335;stroke-miterlimit:4;stroke-dasharray:none;stroke-dashoffset:0;stroke-opacity:1" />
  </g>
</svg>
