<?xml version="1.0" encoding="UTF-8" standalone="no"?>
<svg
   xmlns:dc="http://purl.org/dc/elements/1.1/"
   xmlns:cc="http://creativecommons.org/ns#"
   xmlns:rdf="http://www.w3.org/1999/02/22-rdf-syntax-ns#"
   xmlns:svg="http://www.w3.org/2000/svg"
   xmlns="http://www.w3.org/2000/svg"
   xmlns:xlink="http://www.w3.org/1999/xlink"
   id="svg4532"
   version="1.1"
   viewBox="0 0 16.933333 4.2333335"
   height="16"
   width="64">
  <defs
     id="defs4526">
    <radialGradient
       gradientUnits="userSpaceOnUse"
       gradientTransform="matrix(0.02565843,0.03504781,-0.04742199,0.03471745,22.99795,-5.22507)"
       r="51.167912"
       fy="84.840485"
       fx="-158.35692"
       cy="84.840485"
       cx="-158.35692"
       id="radialGradient4493"
       xlink:href="#linearGradient4522" />
    <linearGradient
       id="linearGradient4522">
      <stop
         style="stop-color:#8cc33a;stop-opacity:1"
         offset="0"
         id="stop4518" />
      <stop
         style="stop-color:#3f7c04;stop-opacity:1"
         offset="1"
         id="stop4520" />
    </linearGradient>
    <linearGradient
       gradientTransform="matrix(3.7795275,0,0,3.7795275,0,-1106.5196)"
       gradientUnits="userSpaceOnUse"
       y2="286.25882"
       x2="7.5095234"
       y1="284.09042"
       x1="7.5095234"
       id="linearGradient5706"
       xlink:href="#linearGradient4522" />
    <linearGradient
       y2="286.25882"
       x2="7.5095234"
       y1="284.09042"
       x1="7.5095234"
       gradientTransform="matrix(-1,0,0,1,11.581206,8.456536e-6)"
       gradientUnits="userSpaceOnUse"
       id="linearGradient5715"
       xlink:href="#linearGradient4522" />
    <linearGradient
       y2="286.25882"
       x2="7.5095234"
       y1="284.09042"
       x1="7.5095234"
       gradientTransform="matrix(-1,0,0,1,7.8085352,-292.76665)"
       gradientUnits="userSpaceOnUse"
       id="linearGradient6850"
       xlink:href="#linearGradient4522" />
    <linearGradient
       y2="286.25882"
       x2="7.5095234"
       y1="284.09042"
       x1="7.5095234"
       gradientTransform="translate(-4.1627226,-292.76665)"
       gradientUnits="userSpaceOnUse"
       id="linearGradient7458"
       xlink:href="#linearGradient4522" />
    <linearGradient
       y2="286.25882"
       x2="7.5095234"
       y1="284.09042"
       x1="7.5095234"
       gradientTransform="matrix(-1,0,0,1,3.9489884,-292.76665)"
       gradientUnits="userSpaceOnUse"
       id="linearGradient7462"
       xlink:href="#linearGradient4522" />
    <linearGradient
       xlink:href="#linearGradient4522"
       id="linearGradient4510"
       gradientUnits="userSpaceOnUse"
       gradientTransform="matrix(-1,0,0,1,0.08943461,-292.76665)"
       x1="7.5095234"
       y1="284.09042"
       x2="7.5095234"
       y2="286.25882" />
    <linearGradient
       xlink:href="#linearGradient4522"
       id="linearGradient5117"
       gradientUnits="userSpaceOnUse"
       gradientTransform="matrix(-1,0,0,1,-3.7702924,-292.76665)"
       x1="7.5095234"
       y1="284.09042"
       x2="7.5095234"
       y2="286.25882" />
    <linearGradient
       y2="286.25882"
       x2="7.5095234"
       y1="284.09042"
       x1="7.5095234"
       gradientTransform="matrix(-1,0,0,1,-7.6299985,-292.76665)"
       gradientUnits="userSpaceOnUse"
       id="linearGradient4536"
       xlink:href="#linearGradient4522" />
    <linearGradient
       y2="286.25882"
       x2="7.5095234"
       y1="284.09042"
       x1="7.5095234"
       gradientTransform="matrix(-3.7795275,0,0,3.7795275,-43.425611,-1106.5196)"
       gradientUnits="userSpaceOnUse"
       id="linearGradient4546"
       xlink:href="#linearGradient4522" />
  </defs>
  <metadata
     id="metadata4529">
    <rdf:RDF>
      <cc:Work
         rdf:about="">
        <dc:format>image/svg+xml</dc:format>
        <dc:type
           rdf:resource="http://purl.org/dc/dcmitype/StillImage" />
        <dc:title></dc:title>
      </cc:Work>
    </rdf:RDF>
  </metadata>
  <path
     style="opacity:1;fill:url(#radialGradient4493);fill-opacity:1;stroke:none;stroke-width:0.26458332;stroke-miterlimit:4;stroke-dasharray:none;stroke-dashoffset:0;stroke-opacity:1"
     d="m 12.763869,-6.44258 c 0.759502,1.17854 2.653724,0.79108 3.011814,-0.54999 0.430309,-1.61152 -0.320332,-1.89236 -1.466622,-1.75471 -0.897476,0.10778 -2.632064,0.68094 -1.545192,2.3047 z"
     id="path4485" />
  <path
     style="opacity:1;fill:url(#linearGradient7458);fill-opacity:1;stroke:none;stroke-width:0.26458335;stroke-miterlimit:4;stroke-dasharray:none;stroke-dashoffset:0;stroke-opacity:1"
     d="M 3.7525568,-8.73177 A 1.5153103,1.51531 0 0 0 2.2374036,-7.2161 1.5153103,1.51531 0 0 0 3.7525568,-5.70094 1.5153103,1.51531 0 0 0 5.2682264,-7.2161 1.5153103,1.51531 0 0 0 3.7525568,-8.73177 Z m -0.3643191,0.65061 a 0.13251324,0.13251324 0 0 1 0.083716,0.0315 l 1.0314615,0.83354 -1.0314615,0.83406 A 0.13269019,0.13269019 0 1 1 3.3060724,-6.58877 l 0.7751464,-0.62735 -0.7751464,-0.6289 a 0.13251324,0.13251324 0 0 1 0.082165,-0.23616 z"
     id="path5698" />
  <path
     style="opacity:1;fill:url(#linearGradient6850);fill-opacity:1;stroke:none;stroke-width:0.26458335;stroke-miterlimit:4;stroke-dasharray:none;stroke-dashoffset:0;stroke-opacity:1"
     d="m -0.10660847,-8.731767 c -0.8371637,-2e-4 -1.51586873,0.6785097 -1.51566983,1.5156697 8.28e-5,0.8369602 0.6787053,1.5153532 1.51566983,1.5151531 0.8367628,-8.99e-5 1.51507017,-0.678393 1.51515297,-1.5151531 1.988e-4,-0.8369599 -0.67819096,-1.5155797 -1.51515297,-1.5156697 z m -0.46508791,0.7177858 h 0.92965905 c 0.18197558,0 0.33382975,0.1497925 0.33382975,0.3317626 v 0.931726 c 0,0.1819802 -0.15185417,0.3317627 -0.33382975,0.3317627 h -0.92965905 c -0.1819756,0 -0.33434653,-0.1497825 -0.33434653,-0.3317627 v -0.931726 c 0,-0.1819701 0.15237093,-0.3317626 0.33434653,-0.3317626 z m 0,0.2656168 c -0.0397494,0 -0.0687296,0.026445 -0.0687296,0.066146 v 0.931726 c 0,0.0398 0.0289802,0.068213 0.0687296,0.068213 h 0.92965905 c 0.0397494,0 0.0682129,-0.028513 0.0682129,-0.068213 v -0.931726 c 0,-0.0397 -0.0284636,-0.066146 -0.0682129,-0.066146 z"
     id="path6848" />
  <path
     id="path7460"
     d="m -3.9662907,-8.73177 a 1.5153103,1.51531 0 0 1 1.5151532,1.51567 1.5153103,1.51531 0 0 1 -1.5151532,1.51516 1.5153103,1.51531 0 0 1 -1.5156696,-1.51516 1.5153103,1.51531 0 0 1 1.5156696,-1.51567 z m 0.3643191,0.65061 a 0.13251324,0.13251324 0 0 0 -0.083716,0.0315 l -1.0314615,0.83354 1.0314615,0.83406 a 0.13269019,0.13269019 0 1 0 0.1658813,-0.20671 l -0.7751464,-0.62735 0.7751464,-0.6289 a 0.13251324,0.13251324 0 0 0 -0.082165,-0.23616 z"
     style="opacity:1;fill:url(#linearGradient7462);fill-opacity:1;stroke:none;stroke-width:0.26458335;stroke-miterlimit:4;stroke-dasharray:none;stroke-dashoffset:0;stroke-opacity:1" />
  <path
     style="opacity:1;fill:url(#linearGradient4510);fill-opacity:1;stroke:none;stroke-width:0.26458335;stroke-miterlimit:4;stroke-dasharray:none;stroke-dashoffset:0;stroke-opacity:1"
     d="m -7.8259724,-8.731767 a 1.5153103,1.51531 0 0 0 -1.5156699,1.5156697 1.5153103,1.51531 0 0 0 1.5156699,1.5151531 1.5153103,1.51531 0 0 0 1.5151529,-1.5151531 1.5153103,1.51531 0 0 0 -1.5151529,-1.5156697 z m -5.167e-4,0.7648113 0.8335407,1.0314614 a 0.13251324,0.13251324 0 0 1 0.031523,0.083716 0.13251324,0.13251324 0 0 1 -0.2361612,0.082165 l -0.6289022,-0.7751464 -0.627352,0.7751464 a 0.13269019,0.13269019 0 1 1 -0.2067057,-0.1658814 z"
     id="path4528" />
  <path
     style="opacity:1;fill:url(#linearGradient5117);fill-opacity:1;stroke:none;stroke-width:0.26458335;stroke-miterlimit:4;stroke-dasharray:none;stroke-dashoffset:0;stroke-opacity:1"
     d="m -11.685654,-8.731767 a 1.5153103,1.51531 0 0 0 -1.51567,1.5156697 1.5153103,1.51531 0 0 0 1.51567,1.5151531 1.5153103,1.51531 0 0 0 1.515153,-1.5151531 1.5153103,1.51531 0 0 0 -1.515153,-1.5156697 z m -5.17e-4,0.3426148 0.833541,1.0314615 a 0.13251325,0.13251325 0 0 1 0.03152,0.083716 0.13251325,0.13251325 0 0 1 -0.236161,0.082165 l -0.628903,-0.7751463 -0.627352,0.7751463 a 0.13269019,0.13269019 0 1 1 -0.206705,-0.1658813 z m 0,0.8128702 0.833541,1.0314617 a 0.13251325,0.13251325 0 0 1 0.03152,0.083716 0.13251325,0.13251325 0 0 1 -0.236161,0.082166 l -0.628903,-0.7751463 -0.627352,0.7751463 a 0.13269019,0.13269019 0 1 1 -0.206705,-0.1658813 z"
     id="path5121" />
  <path
     id="path4542"
     d="m -15.545335,-8.731767 a 1.5153103,1.51531 0 0 0 -1.51567,1.5156697 1.5153103,1.51531 0 0 0 1.51567,1.5151531 1.5153103,1.51531 0 0 0 1.515153,-1.5151531 1.5153103,1.51531 0 0 0 -1.515153,-1.5156697 z m -0.566374,0.5581055 0.133325,0.1881021 c 0.129319,-0.071442 0.276204,-0.1145146 0.433049,-0.1147215 0.455087,5.967e-4 0.838452,0.3399978 0.894002,0.7916829 h -0.145211 c -0.05458,-0.3717158 -0.37309,-0.64706 -0.748791,-0.6475056 -0.12593,9.63e-5 -0.244511,0.033177 -0.34985,0.088367 l 0.558106,0.7875487 h 0.571024 a 0.14553539,0.14553539 0 1 1 0,0.2909385 h -1.560628 a 0.14553539,0.14553539 0 1 1 0,-0.2909385 h 0.562756 l -0.230477,-0.7250202 c -0.157162,0.116495 -0.269997,0.2906514 -0.30024,0.4966105 h -0.144694 c 0.03327,-0.2705582 0.185473,-0.4989309 0.398942,-0.6402711 z"
     style="opacity:1;fill:url(#linearGradient4536);fill-opacity:1;stroke:none;stroke-width:0.26458335;stroke-miterlimit:4;stroke-dasharray:none;stroke-dashoffset:0;stroke-opacity:1" />
  <path
     id="path4544"
     transform="scale(0.26458334)"
     d="M -73.341797 -33.001953 A 5.727157 5.7271558 0 0 0 -79.070312 -27.273438 A 5.727157 5.7271558 0 0 0 -73.341797 -21.546875 A 5.727157 5.7271558 0 0 0 -67.615234 -27.273438 A 5.727157 5.7271558 0 0 0 -73.341797 -33.001953 z M -74.335938 -30.619141 L -74.033203 -30.619141 L -74.033203 -29.941406 L -74.259766 -29.941406 C -74.375142 -29.941406 -74.480461 -29.92533 -74.574219 -29.896484 C -74.665583 -29.870058 -74.745224 -29.82618 -74.8125 -29.763672 C -74.879801 -29.701176 -74.93074 -29.618985 -74.966797 -29.515625 C -75.002854 -29.414669 -75.021484 -29.288151 -75.021484 -29.136719 L -75.021484 -28.505859 C -75.021484 -28.325583 -75.037115 -28.172319 -75.068359 -28.044922 C -75.09721 -27.917524 -75.142615 -27.809187 -75.205078 -27.722656 C -75.267592 -27.638526 -75.347233 -27.573464 -75.443359 -27.525391 C -75.539511 -27.479719 -75.651461 -27.446962 -75.78125 -27.427734 C -75.524058 -27.398889 -75.333978 -27.298067 -75.208984 -27.125 C -75.083983 -26.954339 -75.021484 -26.691687 -75.021484 -26.335938 L -75.021484 -25.419922 C -75.021484 -25.263681 -75.002854 -25.132657 -74.966797 -25.029297 C -74.93074 -24.925937 -74.879801 -24.843746 -74.8125 -24.78125 C -74.745199 -24.718752 -74.665557 -24.674877 -74.574219 -24.648438 C -74.480461 -24.62201 -74.375142 -24.607422 -74.259766 -24.607422 L -74.033203 -24.607422 L -74.033203 -23.929688 L -74.335938 -23.929688 C -74.833505 -23.929686 -75.205996 -24.050645 -75.451172 -24.291016 C -75.696362 -24.52898 -75.818359 -24.90658 -75.818359 -25.425781 L -75.818359 -26.341797 C -75.818359 -26.589376 -75.873811 -26.775397 -75.984375 -26.900391 C -76.094939 -27.025382 -76.277954 -27.087891 -76.535156 -27.087891 L -76.763672 -27.087891 L -76.763672 -27.769531 L -76.535156 -27.769531 C -76.405367 -27.769531 -76.296442 -27.78412 -76.205078 -27.810547 C -76.113714 -27.839392 -76.038144 -27.881765 -75.980469 -27.939453 C -75.922793 -27.997141 -75.881485 -28.071219 -75.857422 -28.160156 C -75.830915 -28.251497 -75.818359 -28.359384 -75.818359 -28.484375 L -75.818359 -29.119141 C -75.818359 -29.36672 -75.789657 -29.583994 -75.734375 -29.771484 C -75.676699 -29.958972 -75.588964 -30.115241 -75.46875 -30.240234 C -75.348561 -30.365226 -75.194844 -30.458989 -75.009766 -30.521484 C -74.822276 -30.586384 -74.597939 -30.619141 -74.335938 -30.619141 z M -72.460938 -30.619141 L -72.158203 -30.619141 C -71.658235 -30.619141 -71.286191 -30.498184 -71.041016 -30.257812 C -70.795825 -30.019848 -70.673828 -29.640745 -70.673828 -29.119141 L -70.673828 -28.513672 C -70.673828 -28.266093 -70.619889 -28.078119 -70.511719 -27.953125 C -70.401155 -27.830537 -70.216186 -27.769531 -69.958984 -27.769531 L -69.728516 -27.769531 L -69.728516 -27.087891 L -69.958984 -27.087891 C -70.088773 -27.087891 -70.199652 -27.073767 -70.291016 -27.044922 C -70.382379 -27.018495 -70.457949 -26.977625 -70.515625 -26.919922 C -70.570907 -26.862234 -70.610262 -26.786655 -70.636719 -26.695312 C -70.660656 -26.606375 -70.673828 -26.499991 -70.673828 -26.375 L -70.673828 -25.425781 C -70.673828 -25.178202 -70.70209 -24.96243 -70.759766 -24.777344 C -70.815048 -24.589857 -70.903222 -24.433588 -71.023438 -24.308594 C -71.143626 -24.183602 -71.296893 -24.089839 -71.484375 -24.027344 C -71.671865 -23.962444 -71.896201 -23.929686 -72.158203 -23.929688 L -72.460938 -23.929688 L -72.460938 -24.607422 L -72.230469 -24.607422 C -72.115092 -24.607422 -72.01126 -24.62201 -71.919922 -24.648438 C -71.826164 -24.674864 -71.746988 -24.720242 -71.679688 -24.785156 C -71.612386 -24.847655 -71.559494 -24.929846 -71.523438 -25.033203 C -71.48738 -25.134159 -71.470703 -25.260677 -71.470703 -25.412109 L -71.470703 -26.349609 C -71.470703 -26.529885 -71.454632 -26.683149 -71.425781 -26.810547 C -71.394537 -26.940346 -71.349133 -27.048683 -71.289062 -27.132812 C -71.226574 -27.219347 -71.148886 -27.284409 -71.052734 -27.330078 C -70.956583 -27.37575 -70.84268 -27.408507 -70.712891 -27.427734 C -70.970082 -27.458981 -71.162113 -27.559805 -71.287109 -27.730469 C -71.409717 -27.903533 -71.470703 -28.167687 -71.470703 -28.523438 L -71.470703 -29.125 C -71.470703 -29.281241 -71.48738 -29.412265 -71.523438 -29.515625 C -71.559494 -29.621386 -71.612386 -29.70508 -71.679688 -29.767578 C -71.746988 -29.830074 -71.826164 -29.873949 -71.919922 -29.900391 C -72.011286 -29.926817 -72.115118 -29.941406 -72.230469 -29.941406 L -72.460938 -29.941406 L -72.460938 -30.619141 z "
     style="opacity:1;fill:url(#linearGradient4546);fill-opacity:1;stroke:none;stroke-width:1;stroke-miterlimit:4;stroke-dasharray:none;stroke-dashoffset:0;stroke-opacity:1" />
</svg>
